<svg version="1.2" xmlns="http://www.w3.org/2000/svg" viewBox="0 1.9999999999999991 32 30" width="32" height="31">
	<title>4781855_alert_attention_caution_danger_error_icon</title>
	<style>
		.s0 { fill: #ff0000 } 
		.s1 { fill: none } 
	</style>
	<g id="Layer_2">
		<path class="s0" d="m24.2 31.8h-16.4q-1.1 0-2.1-0.3-0.9-0.3-1.8-0.8-0.9-0.5-1.6-1.2-0.8-0.7-1.3-1.6-0.5-0.9-0.7-1.9-0.3-0.9-0.3-1.9 0-1 0.3-2 0.2-1 0.7-1.9l8.3-14.1c0.7-1.2 1.7-2.2 2.8-2.8 1.2-0.7 2.5-1.1 3.9-1.1 1.4 0 2.7 0.4 3.9 1.1 1.1 0.6 2.1 1.6 2.8 2.8l8.3 14.1q0.5 0.9 0.7 1.9 0.3 1 0.3 2 0 1-0.3 1.9-0.2 1-0.7 1.9-0.6 0.9-1.3 1.6-0.7 0.7-1.6 1.2-0.9 0.5-1.8 0.8-1 0.3-2.1 0.3zm-8.2-27.1q-0.7 0-1.4 0.2-0.6 0.1-1.2 0.5-0.6 0.3-1.1 0.8-0.5 0.5-0.9 1.1l-8.2 14.2q-0.4 0.6-0.5 1.2-0.2 0.7-0.2 1.4 0 0.7 0.2 1.3 0.1 0.7 0.5 1.3 0.3 0.6 0.8 1.1 0.5 0.5 1.1 0.8 0.6 0.4 1.3 0.5 0.7 0.2 1.4 0.2h16.4q0.7 0 1.4-0.2 0.7-0.1 1.3-0.5 0.6-0.3 1.1-0.8 0.5-0.5 0.8-1.1 0.4-0.6 0.6-1.3 0.1-0.6 0.1-1.3 0-0.7-0.1-1.4-0.2-0.6-0.6-1.2l-8.2-14.2q-0.4-0.6-0.9-1.1-0.5-0.5-1.1-0.8-0.6-0.4-1.2-0.5-0.7-0.2-1.4-0.2z"/>
		<path class="s0" d="m18.5 10.8q-0.5-0.5-1.1-0.8-0.7-0.3-1.4-0.3-0.7 0-1.4 0.3-0.6 0.3-1.1 0.8-0.2 0.3-0.3 0.7-0.2 0.3-0.3 0.6 0 0.4 0 0.7 0 0.4 0.1 0.7l1.8 7.5q0.1 0.4 0.4 0.7 0.3 0.2 0.8 0.2 0.4 0 0.7-0.2 0.4-0.3 0.5-0.7l1.8-7.5q0.1-0.3 0.1-0.7 0-0.3 0-0.7-0.1-0.3-0.3-0.6-0.1-0.4-0.3-0.7z"/>
		<path class="s0" d="m16 26.8c-1 0-1.8-0.8-1.8-1.8 0-1 0.8-1.8 1.8-1.8 1 0 1.8 0.8 1.8 1.8 0 1-0.8 1.8-1.8 1.8z"/>
	</g>
	<g id="frame">
		<path class="s1" d="m0 1h32v32h-32z"/>
	</g>
</svg>